<?xml version="1.0" encoding="iso-8859-1"?>
<!-- Generator: Adobe Illustrator 19.0.0, SVG Export Plug-In . SVG Version: 6.00 Build 0)  -->
<svg version="1.1" id="Layer_1" xmlns="http://www.w3.org/2000/svg" xmlns:xlink="http://www.w3.org/1999/xlink" x="0px" y="0px"
	 viewBox="0 0 512.009 512.009" style="enable-background:new 0 0 512.009 512.009;" xml:space="preserve">
<circle style="fill:#F7B239;" cx="256.004" cy="256.004" r="256.004"/>
<path style="fill:#E09B2D;" d="M121.499,390.501C29.407,298.407,22.15,153.608,99.723,53.204
	c-8.593,6.638-16.861,13.895-24.743,21.777c-99.974,99.974-99.974,262.065,0,362.038s262.065,99.974,362.038,0
	c7.881-7.881,15.138-16.15,21.777-24.743C358.392,489.85,213.593,482.593,121.499,390.501z"/>
<path style="fill:#FFFFFF;" d="M126.955,264.933h258.092c0,14.486-2.391,28.415-6.794,41.421H133.749
	C129.346,293.348,126.955,279.419,126.955,264.933z"/>
<path style="fill:#A81004;" d="M133.749,306.354h244.504c-8.679,25.632-25.189,47.633-46.684,63.182
	c-9.033-15.22-25.632-25.417-44.622-25.417c-11.602,0-22.305,3.808-30.946,10.248c-8.641-6.44-19.357-10.248-30.958-10.248
	c-18.977,0-35.589,10.197-44.609,25.417C158.938,353.987,142.428,331.986,133.749,306.354z"/>
<path style="fill:#F95428;" d="M286.946,344.119c18.99,0,35.589,10.197,44.622,25.417c-21.242,15.384-47.355,24.443-75.568,24.443
	c-28.213,0-54.326-9.059-75.568-24.443c9.021-15.22,25.632-25.417,44.609-25.417c11.601,0,22.317,3.808,30.958,10.248
	C264.642,347.927,275.345,344.119,286.946,344.119z"/>
<g>
	<path style="fill:#4D4D4D;" d="M205.155,208.171c0.858-3.756-0.64-7.659-3.793-9.876l-56.299-39.588
		c-4.286-3.014-10.205-1.984-13.22,2.304c-3.014,4.286-1.982,10.205,2.304,13.22l37.322,26.244l-78.322,12.931
		c-5.171,0.854-8.67,5.737-7.816,10.908c0.767,4.647,4.79,7.944,9.351,7.944c0.514,0,1.034-0.042,1.557-0.128l101.213-16.71
		C201.252,214.792,204.297,211.928,205.155,208.171z"/>
	<path style="fill:#4D4D4D;" d="M418.853,213.407l-78.323-12.931l37.322-26.244c4.286-3.015,5.319-8.933,2.304-13.22
		c-3.015-4.288-8.935-5.319-13.22-2.304l-56.299,39.588c-3.151,2.217-4.651,6.118-3.793,9.876c0.858,3.758,3.903,6.621,7.705,7.248
		l101.213,16.71c0.524,0.086,1.044,0.128,1.557,0.128c4.56,0,8.583-3.297,9.351-7.944
		C427.523,219.144,424.024,214.261,418.853,213.407z"/>
</g>
<g>
</g>
<g>
</g>
<g>
</g>
<g>
</g>
<g>
</g>
<g>
</g>
<g>
</g>
<g>
</g>
<g>
</g>
<g>
</g>
<g>
</g>
<g>
</g>
<g>
</g>
<g>
</g>
<g>
</g>
</svg>
