<?xml version="1.0" encoding="iso-8859-1"?>
<!-- Generator: Adobe Illustrator 19.0.0, SVG Export Plug-In . SVG Version: 6.00 Build 0)  -->
<svg version="1.1" id="Layer_1" xmlns="http://www.w3.org/2000/svg" xmlns:xlink="http://www.w3.org/1999/xlink" x="0px" y="0px"
	 viewBox="0 0 512.009 512.009" style="enable-background:new 0 0 512.009 512.009;" xml:space="preserve">
<circle style="fill:#F7B239;" cx="256.004" cy="256.004" r="256.004"/>
<path style="fill:#E09B2D;" d="M121.499,390.501C29.407,298.407,22.15,153.608,99.723,53.204
	c-8.593,6.638-16.861,13.895-24.743,21.777c-99.974,99.974-99.974,262.065,0,362.038s262.065,99.974,362.038,0
	c7.881-7.881,15.138-16.15,21.777-24.743C358.392,489.85,213.593,482.593,121.499,390.501z"/>
<path style="fill:#A81004;" d="M304.789,362.943c0,12.93-2.72,25-7.414,35.209c-8.616,18.75-23.924,31.211-41.371,31.211
	s-32.755-12.462-41.371-31.211c-4.706-10.21-7.426-22.279-7.426-35.209c0-36.677,21.849-66.421,48.797-66.421
	S304.789,326.266,304.789,362.943z"/>
<path style="fill:#F95428;" d="M297.375,398.152c-8.616,18.75-23.924,31.211-41.371,31.211s-32.755-12.462-41.371-31.211
	c3.365-0.683,6.844-1.05,10.412-1.05c4.296,0,8.471,0.522,12.466,1.507c12.123,2.99,24.863,2.987,36.986-0.003
	c3.989-0.983,8.159-1.506,12.453-1.506C290.518,397.102,294.01,397.469,297.375,398.152z"/>
<g>
	<path style="fill:#4D4D4D;" d="M142.673,190.646c-19.358,0-35.107,15.749-35.107,35.107s15.749,35.107,35.107,35.107
		s35.107-15.749,35.107-35.107S162.031,190.646,142.673,190.646z"/>
	<path style="fill:#4D4D4D;" d="M369.327,190.646c-19.358,0-35.107,15.749-35.107,35.107s15.749,35.107,35.107,35.107
		s35.107-15.749,35.107-35.107S388.685,190.646,369.327,190.646z"/>
	<path style="fill:#4D4D4D;" d="M369.326,115.171c-23.455,0-44.64,12.022-56.67,32.156c-2.687,4.499-1.22,10.325,3.279,13.012
		c4.501,2.688,10.326,1.22,13.012-3.279c8.571-14.347,23.666-22.912,40.379-22.913c16.714,0,31.81,8.566,40.381,22.913
		c1.776,2.974,4.925,4.623,8.154,4.623c1.656,0,3.334-0.434,4.858-1.345c4.499-2.688,5.966-8.513,3.279-13.012
		C413.967,127.191,392.782,115.171,369.326,115.171z"/>
	<path style="fill:#4D4D4D;" d="M199.344,147.327c-12.03-20.135-33.215-32.156-56.67-32.156c-0.001,0,0.001,0-0.001,0
		c-23.453,0-44.641,12.023-56.671,32.156c-2.687,4.499-1.22,10.325,3.279,13.012c1.525,0.911,3.201,1.345,4.858,1.345
		c3.229,0,6.378-1.65,8.154-4.623c8.571-14.347,23.667-22.913,40.381-22.913c16.713,0,31.807,8.566,40.379,22.913
		c2.688,4.499,8.514,5.966,13.012,3.279C200.564,157.652,202.032,151.826,199.344,147.327z"/>
</g>
<g>
</g>
<g>
</g>
<g>
</g>
<g>
</g>
<g>
</g>
<g>
</g>
<g>
</g>
<g>
</g>
<g>
</g>
<g>
</g>
<g>
</g>
<g>
</g>
<g>
</g>
<g>
</g>
<g>
</g>
</svg>
